<?xml version="1.0" encoding="utf-8"?>
<!-- Generator: Adobe Illustrator 24.1.2, SVG Export Plug-In . SVG Version: 6.00 Build 0)  -->
<svg version="1.1" id="Layer_1" xmlns="http://www.w3.org/2000/svg" xmlns:xlink="http://www.w3.org/1999/xlink" x="0px" y="0px"
	 viewBox="0 0 80 80" style="enable-background:new 0 0 80 80;" xml:space="preserve">
<style type="text/css">
	.st0{fill:#133E35;}
</style>
<path class="st0" d="M39.9,22.2C37,29,30.7,33.3,27.5,34.8c-0.1,0-0.1,0.2,0,0.2c6.3-0.3,11.7-5.7,12.4-6.4H40
	c0.7,0.7,6.1,6.2,12.5,6.4c0.1,0,0.1-0.1,0-0.2C45,31.2,41.1,25.1,39.9,22.2C40.1,22.2,39.9,22.2,39.9,22.2z"/>
<path class="st0" d="M38,59c0.8-12.2,0.8-19.4,1-32h2c0,12.4,1,32,1,32H38z"/>
</svg>
