<?xml version="1.0" encoding="utf-8"?>
<!-- Generator: Adobe Illustrator 24.1.2, SVG Export Plug-In . SVG Version: 6.00 Build 0)  -->
<svg version="1.1" id="Layer_1" xmlns="http://www.w3.org/2000/svg" xmlns:xlink="http://www.w3.org/1999/xlink" x="0px" y="0px"
	 viewBox="0 0 24 24" style="enable-background:new 0 0 24 24;" xml:space="preserve">
<style type="text/css">
	.st0{fill:#133E35;}
</style>
<path class="st0" d="M11.9,22.9c-5.8,0-10.4-4.7-10.4-10.4C1.5,6.7,6.2,2,11.9,2s10.4,4.7,10.4,10.4C22.4,18.2,17.7,22.9,11.9,22.9z
	 M11.9,4c-4.7,0-8.4,3.8-8.4,8.4c0,4.7,3.8,8.4,8.4,8.4s8.4-3.8,8.4-8.4C20.4,7.8,16.6,4,11.9,4z"/>
<path class="st0" d="M11.9,22.9L11.9,22.9c-0.3,0-0.6-0.1-0.7-0.3c-0.2-0.2-4-4.6-4-10.1s3.8-9.9,4-10.1c0.4-0.4,1.1-0.4,1.5,0
	c0.2,0.2,4,4.6,4,10.1s-3.8,9.9-4,10.1C12.5,22.8,12.2,22.9,11.9,22.9z M11.9,4.6c-1,1.5-2.7,4.4-2.7,7.8s1.7,6.3,2.7,7.8
	c1-1.5,2.7-4.4,2.7-7.8C14.7,9.1,12.9,6.1,11.9,4.6z"/>
<path class="st0" d="M21,10.5H2.9v-2H21V10.5z"/>
<path class="st0" d="M21,16.3H2.9v-2H21V16.3z"/>
</svg>
