<?xml version="1.0" encoding="utf-8"?>
<!-- Generator: Adobe Illustrator 24.1.2, SVG Export Plug-In . SVG Version: 6.00 Build 0)  -->
<svg version="1.1" id="Layer_1" xmlns="http://www.w3.org/2000/svg" xmlns:xlink="http://www.w3.org/1999/xlink" x="0px" y="0px"
	 viewBox="0 0 89.6 18" style="enable-background:new 0 0 89.6 18;" xml:space="preserve">
<style type="text/css">
	.st0{fill:#133E35;}
</style>
<path class="st0" d="M4,4.8c0-1.4,1-2.3,2.4-2.3s2.2,0.8,2.6,2l2.6-1.1C10.9,1.4,9,0,6.5,0C3.4,0,1.2,2.2,1.2,5
	c0,5.8,8.1,3.8,8.1,7.6c0,1.7-1.4,2.9-3.1,2.9c-1.8,0-3.1-1.2-3.5-3.1L0,13.2C0.6,16.1,3,18,6.1,18c3.3,0,6-2.4,6-5.5
	C12.2,6.4,4,8.3,4,4.8L4,4.8z"/>
<path class="st0" d="M18.9,17.7h9.8v-2.5h-6.9V9.8h6.8V7.3h-6.8V2.7h6.9V0.2h-9.8C18.9,0.2,18.9,17.7,18.9,17.7z"/>
<path class="st0" d="M44.4,0.1c-5,0-8.9,4-8.9,8.9s4,8.9,8.9,8.9c5,0,8.9-4,8.9-8.9S49.3,0.1,44.4,0.1z M44.4,15.2
	c-3.4,0-6-2.7-6-6.2s2.6-6.2,6-6.2s6,2.7,6,6.2S47.7,15.2,44.4,15.2z"/>
<path class="st0" d="M70.4,10.9c0,2.9-1.5,4.4-3.7,4.4s-3.8-1.5-3.8-4.4V0.3H60v10.6c0,4.5,2.9,7,6.6,7s6.6-2.5,6.6-7V0.3h-2.9
	L70.4,10.9L70.4,10.9z"/>
<path class="st0" d="M82.8,0.3h-2.9v17.4h9.7v-2.5h-6.8C82.8,15.2,82.8,0.3,82.8,0.3z"/>
</svg>
