<?xml version="1.0" encoding="utf-8"?>
<!-- Generator: Adobe Illustrator 24.1.2, SVG Export Plug-In . SVG Version: 6.00 Build 0)  -->
<svg version="1.1" id="Layer_1" xmlns="http://www.w3.org/2000/svg" xmlns:xlink="http://www.w3.org/1999/xlink" x="0px" y="0px"
	 viewBox="0 0 24 24" style="enable-background:new 0 0 24 24;" xml:space="preserve">
<style type="text/css">
	.st0{fill:#133E35;}
</style>
<path class="st0" d="M20.6,7v3.3c0,0-2.8,0.2-5.1-1.7V16c0,0.3,0,0.6-0.1,0.9c-0.3,1.3-1.4,4.7-5.9,5.1c-0.2,0-0.5,0-0.7,0
	c-1.3-0.1-5.1-0.8-5.8-5.4c0-0.5,0-1,0.1-1.6c0.2-1.6,1.8-5.8,7.1-5.3V13c0,0-2.3-0.5-3.4,1.2c-0.6,0.9-0.6,2.1-0.2,3
	C7,18,7.8,18.7,9.2,18.8c0.6,0,2.6-0.2,3-2.6V2h3.2C15.5,2,15.5,6.7,20.6,7L20.6,7z"/>
</svg>
