<?xml version="1.0" encoding="utf-8"?>
<!-- Generator: Adobe Illustrator 24.1.2, SVG Export Plug-In . SVG Version: 6.00 Build 0)  -->
<svg version="1.1" id="Layer_1" xmlns="http://www.w3.org/2000/svg" xmlns:xlink="http://www.w3.org/1999/xlink" x="0px" y="0px"
	 viewBox="0 0 24 24" style="enable-background:new 0 0 24 24;" xml:space="preserve">
<style type="text/css">
	.st0{fill:#133E35;}
</style>
<path class="st0" d="M22.5,6.7c-0.3-1-1-1.7-1.9-2C18.9,4.2,12,4.2,12,4.2s-6.9,0-8.6,0.5c-0.9,0.3-1.7,1-1.9,2C1,8.4,1,12,1,12
	s0,3.6,0.5,5.3c0.3,1,1,1.7,1.9,2c1.7,0.5,8.6,0.5,8.6,0.5s6.9,0,8.6-0.5c0.9-0.3,1.7-1,1.9-2C23,15.6,23,12,23,12S23,8.4,22.5,6.7z
	 M9.8,15.3V8.7l5.8,3.3L9.8,15.3z"/>
</svg>
